<svg viewBox="0 0 186 28" fill="none" xmlns="http://www.w3.org/2000/svg"><path fill-rule="evenodd" clip-rule="evenodd" d="M153.066 7.26172H149.92C149.857 7.26172 149.808 7.31096 149.808 7.37364V23.282C149.808 23.3447 149.857 23.3939 149.92 23.3939H153.066C153.129 23.3939 153.178 23.3447 153.178 23.282V7.37364C153.178 7.31096 153.129 7.26172 153.066 7.26172ZM144.159 11.4408C143.348 11.1028 142.479 10.9349 141.552 10.9349V10.9394C140.636 10.9394 139.771 11.1073 138.954 11.4453C138.137 11.7788 137.432 12.2377 136.832 12.8219C136.233 13.4017 135.759 14.0844 135.407 14.8589C135.054 15.6334 134.879 16.4616 134.879 17.3435V26.2568C134.879 26.3195 134.928 26.3687 134.991 26.3687H138.137C138.2 26.3687 138.249 26.3195 138.249 26.2568V22.4C138.685 22.8164 139.183 23.1477 139.745 23.3849C140.304 23.6222 140.908 23.7431 141.552 23.7431C142.484 23.7431 143.351 23.5752 144.159 23.2372C144.969 22.9037 145.672 22.4448 146.269 21.8606C146.867 21.2764 147.343 20.5981 147.695 19.8236C148.048 19.0492 148.223 18.2165 148.223 17.339C148.223 16.4616 148.048 15.6289 147.695 14.8544C147.343 14.0799 146.867 13.3994 146.269 12.8174C145.67 12.2377 144.967 11.7788 144.159 11.4408ZM142.8 20.4347C142.387 20.616 141.947 20.7056 141.485 20.7056C141.022 20.7056 140.578 20.6138 140.169 20.4347C139.758 20.2534 139.401 20.0161 139.102 19.7162C138.804 19.4185 138.559 19.0648 138.382 18.653C138.2 18.2411 138.11 17.8068 138.11 17.3413C138.11 16.8757 138.202 16.4414 138.382 16.0295C138.563 15.6199 138.801 15.264 139.102 14.9663C139.401 14.6686 139.756 14.4269 140.169 14.2478C140.582 14.0665 141.018 13.9769 141.485 13.9769C141.952 13.9769 142.387 14.0687 142.8 14.2478C143.211 14.4291 143.568 14.6664 143.867 14.9663C144.166 15.264 144.408 15.6199 144.588 16.0295C144.77 16.4414 144.859 16.8757 144.859 17.3413C144.859 17.8068 144.767 18.2456 144.588 18.653C144.406 19.0626 144.166 19.4185 143.867 19.7162C143.568 20.0139 143.214 20.2557 142.8 20.4347ZM158.666 11.2953C158.729 11.2953 158.778 11.3446 158.778 11.4072V17.3435C158.778 17.8068 158.836 18.2433 158.947 18.6552C159.057 19.0671 159.232 19.4207 159.463 19.7184C159.694 20.0161 159.988 20.2557 160.341 20.437C160.693 20.6138 161.1 20.7078 161.565 20.7078C162.029 20.7078 162.438 20.6183 162.788 20.437C163.141 20.2601 163.435 20.0184 163.666 19.7184C163.897 19.4207 164.07 19.0648 164.183 18.6552C164.293 18.2456 164.351 17.8091 164.351 17.3435V11.4072C164.351 11.3446 164.4 11.2953 164.463 11.2953H167.609C167.672 11.2953 167.721 11.3446 167.721 11.4072V17.3435C167.721 18.2254 167.575 19.0536 167.283 19.8281C166.992 20.6026 166.576 21.2831 166.035 21.8651C165.496 22.4493 164.847 22.9059 164.091 23.2417C163.334 23.5797 162.492 23.7476 161.562 23.7476C160.633 23.7476 159.789 23.5797 159.034 23.2417C158.277 22.9037 157.629 22.4448 157.09 21.8651C156.551 21.2808 156.133 20.6026 155.841 19.8281C155.549 19.0536 155.403 18.2209 155.403 17.3435V11.4072C155.403 11.3446 155.453 11.2953 155.516 11.2953H158.668H158.666ZM176.954 16.5802C176.525 16.4168 176.087 16.3138 175.638 16.2668V16.2623C175.31 16.2153 174.978 16.1527 174.65 16.0698C174.322 15.987 174.022 15.8841 173.752 15.7565C173.48 15.6289 173.263 15.4856 173.099 15.3289C172.935 15.1722 172.852 15.0021 172.852 14.823C172.852 14.4201 172.998 14.1403 173.29 13.9836C173.582 13.827 173.914 13.7486 174.289 13.7486C174.466 13.7486 174.646 13.771 174.816 13.8046C174.987 13.8426 175.142 13.912 175.277 14.0083C175.409 14.1045 175.519 14.2388 175.602 14.4112C175.672 14.5589 175.715 14.7358 175.724 14.9417C175.726 15.0021 175.775 15.0514 175.836 15.0514H178.984C179.047 15.0514 179.098 14.9976 179.098 14.935C179.085 14.3284 178.957 13.7822 178.719 13.3054C178.465 12.7995 178.117 12.3698 177.675 12.0183C177.237 11.6669 176.725 11.4005 176.148 11.2103C175.571 11.0222 174.94 10.9282 174.293 10.9282C173.647 10.9282 173.034 11.0245 172.45 11.2103C171.864 11.3983 171.352 11.6624 170.91 12.0071C170.467 12.3519 170.117 12.7682 169.863 13.2629C169.61 13.7531 169.482 14.3082 169.482 14.9193C169.482 15.3983 169.61 15.8393 169.874 16.2534C170.137 16.6653 170.481 17.0279 170.91 17.3413C171.338 17.6546 171.83 17.9143 172.394 18.1247C172.957 18.3351 173.528 18.4761 174.114 18.5522C174.623 18.6261 175.045 18.7761 175.373 18.9999C175.706 19.2238 175.87 19.4767 175.87 19.761C175.87 20.1527 175.701 20.4392 175.362 20.6362C175.028 20.8309 174.671 20.9272 174.296 20.9272C173.921 20.9272 173.568 20.8354 173.229 20.6563C172.915 20.4885 172.749 20.1818 172.726 19.7341C172.724 19.6737 172.677 19.6244 172.616 19.6244C172.113 19.6244 169.987 19.6244 169.468 19.6244C169.405 19.6244 169.354 19.6782 169.354 19.7408C169.369 20.3362 169.5 20.8757 169.756 21.3614C170.027 21.8763 170.391 22.3083 170.847 22.6597C171.303 23.0111 171.832 23.282 172.43 23.4678C173.029 23.6558 173.635 23.7498 174.296 23.7498C174.956 23.7498 175.58 23.6536 176.173 23.4678C176.765 23.2797 177.289 23.0134 177.747 22.6597C178.207 22.3105 178.566 21.8763 178.838 21.3614C179.105 20.8466 179.24 20.2691 179.24 19.6267C179.24 19.1185 179.136 18.6664 178.925 18.2724C178.714 17.874 178.445 17.536 178.106 17.2517C177.771 16.9674 177.39 16.7436 176.961 16.5802H176.954Z" fill="white"></path><path d="M43.3479 11.5195C44.6816 11.5195 45.7684 11.8687 46.6059 12.5649C47.4411 13.261 47.8633 14.2392 47.8633 15.4949V23.3786H46.1187V20.2068C45.3261 22.472 43.7925 23.6069 41.5113 23.6069C40.4425 23.6069 39.569 23.3159 38.8932 22.7339C38.2174 22.152 37.8828 21.3775 37.8828 20.415C37.8828 19.3741 38.269 18.5683 39.0347 18.0019C39.8026 17.4356 40.7972 17.0887 42.0232 16.9678L44.6525 16.6701C45.6314 16.5761 46.1187 16.1351 46.1187 15.3382C46.1187 14.6197 45.8649 14.0534 45.3508 13.6371C44.8388 13.223 44.1652 13.0148 43.3255 13.0148C42.4857 13.0148 41.765 13.223 41.1632 13.6371C40.5592 14.0512 40.1483 14.6846 39.9305 15.5442L38.2331 15.0853C38.5137 13.937 39.1132 13.0551 40.0361 12.4418C40.9589 11.8284 42.0658 11.5218 43.3524 11.5218H43.3479V11.5195ZM41.9513 22.1609C43.1481 22.1609 44.1405 21.7669 44.9286 20.9768C45.7212 20.1866 46.1142 19.2644 46.1142 18.2079V17.2409C45.8964 17.6998 45.3687 17.9773 44.5335 18.0669L41.9962 18.3444C41.2845 18.4384 40.7097 18.6466 40.2718 18.9757C39.8362 19.3069 39.6207 19.7546 39.6207 20.3187C39.6207 20.8828 39.8362 21.3125 40.2606 21.6505C40.685 21.9885 41.2486 22.1564 41.9468 22.1564L41.9513 22.1609Z" fill="white"></path><path d="M49.7969 18.6177V11.748H51.5415V18.6222C51.5415 19.616 51.8693 20.4331 52.5205 21.0576C53.1716 21.6866 53.9934 21.9977 54.9858 21.9977C55.9782 21.9977 56.8 21.6843 57.4512 21.0576C58.1023 20.4286 58.4301 19.6183 58.4301 18.6222V11.748H60.1748V18.6222C60.1748 20.0951 59.6875 21.2948 58.7086 22.2215C57.7296 23.1482 56.4902 23.6116 54.9858 23.6116C53.4815 23.6116 52.2398 23.1482 51.2631 22.2215C50.2841 21.2948 49.7969 20.0951 49.7969 18.6222V18.6177Z" fill="white"></path><path d="M72.6023 15.123V7.26172H74.3469V23.376H72.6023V19.996C72.1982 21.0995 71.556 21.9792 70.6713 22.6284C69.7889 23.2775 68.7628 23.6043 67.5997 23.6043C66.0011 23.6043 64.6741 23.029 63.6076 21.8807C62.5455 20.7324 62.0156 19.2909 62.0156 17.5606C62.0156 15.8303 62.5455 14.4067 63.6076 13.2517C64.6696 12.0944 66.0011 11.5169 67.5997 11.5169C68.7628 11.5169 69.7889 11.8437 70.6713 12.4929C71.556 13.142 72.1982 14.0217 72.6023 15.1252V15.1208V15.123ZM68.087 21.9971C69.3893 21.9971 70.4693 21.5763 71.3225 20.7324C72.178 19.8886 72.6023 18.832 72.6023 17.5606C72.6023 16.2892 72.178 15.2327 71.3225 14.3888C70.467 13.5449 69.3915 13.1241 68.087 13.1241C66.8902 13.1241 65.8798 13.5472 65.0513 14.4C64.2228 15.2506 63.8074 16.3026 63.8074 17.5606C63.8074 18.8186 64.2228 19.8706 65.0513 20.7212C65.8798 21.5718 66.8947 21.9971 68.087 21.9971Z" fill="white"></path><path d="M76.6055 8.38178C76.6055 8.05945 76.7155 7.79308 76.9333 7.57819C77.1511 7.3633 77.4205 7.25586 77.7483 7.25586C78.0762 7.25586 78.3254 7.3633 78.5522 7.57819C78.7767 7.79308 78.8912 8.05945 78.8912 8.38178C78.8912 8.70411 78.7789 8.95033 78.5522 9.16522C78.3276 9.38011 78.0582 9.48755 77.7483 9.48755C77.4205 9.48755 77.1511 9.38011 76.9333 9.16522C76.7155 8.95033 76.6055 8.69068 76.6055 8.38178ZM78.606 23.3768H76.8614V11.7483H78.606V23.3768Z" fill="white"></path><path d="M86.7259 11.5195C88.5402 11.5195 90.0355 12.1508 91.2054 13.4155C92.3752 14.6802 92.8916 16.2381 92.7546 18.0915H82.3992C82.5227 19.2555 82.9987 20.2113 83.8317 20.9544C84.6602 21.6976 85.6751 22.0669 86.8674 22.0669C87.7835 22.0669 88.5985 21.8453 89.3103 21.3998C90.0221 20.9544 90.5677 20.3523 90.9382 19.5823L92.4291 20.2045C91.9306 21.232 91.1964 22.0535 90.2174 22.6757C89.2407 23.298 88.1158 23.6069 86.8427 23.6069C85.0891 23.6069 83.6207 23.0294 82.4329 21.8722C81.2474 20.7149 80.6523 19.2801 80.6523 17.5632C80.6523 15.8464 81.2339 14.4093 82.397 13.2543C83.56 12.097 85.0038 11.5195 86.7237 11.5195V11.524L86.7259 11.5195ZM86.7259 13.0596C85.6572 13.0596 84.7254 13.3976 83.9328 14.0713C83.1402 14.7473 82.6462 15.6113 82.4419 16.6679H90.9831C90.8124 15.627 90.3364 14.7652 89.5506 14.0825C88.7692 13.3998 87.8239 13.0596 86.7215 13.0596H86.7259Z" fill="white"></path><path d="M100.944 11.5195C102.325 11.5195 103.461 11.9941 104.354 12.9454C105.246 13.8967 105.693 15.0898 105.693 16.5291V23.3786H103.948V16.735C103.948 15.7076 103.607 14.8458 102.922 14.1497C102.239 13.4535 101.395 13.1043 100.385 13.1043C99.2822 13.1043 98.3728 13.449 97.661 14.1385C96.9493 14.8279 96.5923 15.6942 96.5923 16.735V23.3786H94.8477V11.7501H96.5923V14.7384C96.9201 13.7579 97.468 12.9745 98.2426 12.3925C99.0172 11.8105 99.9176 11.5195 100.939 11.5195H100.944Z" fill="white"></path><path d="M108.741 21.8722C107.556 20.7149 106.961 19.2801 106.961 17.5632C106.961 15.8464 107.554 14.4093 108.741 13.2543C109.927 12.097 111.4 11.5195 113.151 11.5195C114.424 11.5195 115.558 11.8463 116.562 12.4955C117.561 13.1446 118.304 14.0333 118.783 15.1502L117.175 15.7031C116.818 14.9062 116.284 14.2772 115.567 13.8184C114.855 13.3595 114.047 13.1289 113.145 13.1289C111.905 13.1289 110.861 13.552 110.015 14.4048C109.168 15.2554 108.746 16.3075 108.746 17.5655C108.746 18.8234 109.168 19.8755 110.015 20.7261C110.861 21.5767 111.901 22.002 113.145 22.002C114.043 22.002 114.851 21.7714 115.567 21.3126C116.279 20.8537 116.813 20.2247 117.175 19.4278L118.783 19.9807C118.302 21.1021 117.561 21.9841 116.562 22.6354C115.563 23.2846 114.424 23.6114 113.151 23.6114C111.4 23.6114 109.929 23.0339 108.741 21.8766V21.8722Z" fill="white"></path><path d="M126.203 11.5195C128.017 11.5195 129.512 12.1508 130.682 13.4155C131.852 14.6802 132.368 16.2381 132.231 18.0915H121.876C121.999 19.2555 122.475 20.2113 123.308 20.9544C124.137 21.6976 125.152 22.0669 126.344 22.0669C127.26 22.0669 128.075 21.8453 128.787 21.3998C129.499 20.9544 130.044 20.3523 130.415 19.5823L131.906 20.2045C131.407 21.232 130.673 22.0535 129.694 22.6757C128.715 23.298 127.592 23.6069 126.319 23.6069C124.568 23.6069 123.097 23.0294 121.909 21.8722C120.724 20.7149 120.129 19.2801 120.129 17.5632C120.129 15.8464 120.71 14.4093 121.874 13.2543C123.037 12.097 124.48 11.5195 126.2 11.5195V11.524L126.203 11.5195ZM126.203 13.0596C125.134 13.0596 124.202 13.3976 123.409 14.0713C122.617 14.7473 122.123 15.6113 121.918 16.6679H130.46C130.289 15.627 129.813 14.7652 129.027 14.0825C128.246 13.3998 127.3 13.0596 126.198 13.0596H126.203Z" fill="white"></path><path d="M180.375 7.70383V7.25391H182.308V7.70159H181.614V9.53484H181.069V7.70383H180.375Z" fill="white"></path><path d="M182.58 7.25391H183.265L183.844 8.6641H183.871L184.453 7.25391H185.138V9.53484H184.599V8.13584H184.579L184.029 9.52141H183.685L183.135 8.12912H183.117V9.53708H182.578V7.25391H182.58Z" fill="white"></path><path fill-rule="evenodd" clip-rule="evenodd" d="M7.32409 26.3129C7.54023 26.3129 7.73556 26.184 7.82064 25.9854L17.9809 2.25865C18.1335 1.90224 17.872 1.50586 17.4843 1.50586H11.1426C10.9265 1.50586 10.7312 1.63467 10.6461 1.83333L0.482694 25.56C0.330018 25.9165 0.591473 26.3129 0.979221 26.3129H7.32409ZM19.0466 10.0745C19.0466 9.77614 19.2885 9.5343 19.5868 9.5343H24.2724C24.5707 9.5343 24.8125 9.77614 24.8125 10.0745V14.7374V15.9961V19.8507V21.1992V25.7723C24.8125 26.0707 24.5707 26.3125 24.2724 26.3125H19.5868C19.2885 26.3125 19.0466 26.0707 19.0466 25.7723V21.1992V19.8507V15.9961V14.7374V10.0745ZM18.4993 21.1992C18.7976 21.1992 19.0394 20.9574 19.0394 20.6591V15.2776C19.0394 14.9793 18.7976 14.7374 18.4993 14.7374H13.8137C13.5153 14.7374 13.2735 14.9793 13.2735 15.2776V20.6591C13.2735 20.9574 13.5153 21.1992 13.8137 21.1992H18.4993ZM30.0419 21.1992H25.3563C25.058 21.1992 24.8162 20.9574 24.8162 20.6591V15.2776C24.8162 14.9793 25.058 14.7374 25.3563 14.7374H30.0419C30.3402 14.7374 30.5821 14.9793 30.5821 15.2776V20.6591C30.5821 20.9574 30.3402 21.1992 30.0419 21.1992Z" fill="url(#paint0_linear_2267_71807)"></path><defs><linearGradient id="paint0_linear_2267_71807" x1="29.6056" y1="0.0963677" x2="-3.77593" y2="45.8962" gradientUnits="userSpaceOnUse"><stop stop-color="#8143D7"></stop><stop offset="0.977213" stop-color="#000079"></stop></linearGradient></defs></svg>