<svg viewBox="0 0 102 26" fill="none" xmlns="http://www.w3.org/2000/svg" data-logo-light="true"><path d="M34.3289 5.28302C33.3877 4.7686 32.2767 4.5108 30.9948 4.5108C30.1402 4.5108 29.3545 4.65312 28.6387 4.93657C27.9218 5.22003 27.3129 5.6353 26.8109 6.18122C26.7942 6.19872 26.7788 6.21855 26.7634 6.23722V0.236762H23.0447V20.3285H26.7634V11.5378C26.7634 10.8029 26.9082 10.1566 27.1966 9.60022C27.485 9.04381 27.891 8.61337 28.4144 8.30891C28.9379 8.00446 29.5527 7.85165 30.2577 7.85165C30.9628 7.85165 31.5562 7.98346 32.037 8.24592C32.5177 8.50838 32.8809 8.90266 33.1266 9.42758C33.3723 9.95251 33.4957 10.6151 33.4957 11.413V20.3297H37.2144V11.0338C37.2144 9.66905 36.9687 8.49789 36.4773 7.52036C35.9859 6.544 35.269 5.79861 34.3289 5.28302ZM50.4547 4.9844L46.2874 15.0128L42.12 4.9844H37.8565L44.3099 19.2052L43.1455 21.684C42.9746 22.0409 42.755 22.3034 42.488 22.4713C42.2209 22.6393 41.8518 22.7233 41.3817 22.7233H39.3758V26H42.3123C43.0387 26 43.6429 25.9102 44.1236 25.7317C44.6043 25.5532 44.9995 25.2908 45.3093 24.9443C45.6191 24.5979 45.9028 24.1511 46.1592 23.6052L54.6233 4.9844H50.4547ZM81.9704 5.28302C81.0291 4.7686 79.9182 4.5108 78.6363 4.5108C77.7817 4.5108 76.9793 4.65778 76.2315 4.95174C75.4826 5.2457 74.8582 5.67613 74.3562 6.24305C74.2066 6.41219 74.0737 6.59416 73.955 6.78547V4.9844H70.685V20.3285H74.4036V11.5378C74.4036 10.8029 74.5484 10.1566 74.8369 9.60022C75.1253 9.04381 75.5312 8.61337 76.0547 8.30891C76.5781 8.00446 77.1929 7.85165 77.898 7.85165C78.603 7.85165 79.1965 7.98346 79.6772 8.24592C80.1579 8.50838 80.5211 8.90266 80.7668 9.42758C81.0125 9.95251 81.136 10.6151 81.136 11.413V20.3297H84.8547V11.0338C84.8547 9.66905 84.609 8.49789 84.1176 7.52036C83.6262 6.544 82.9104 5.79861 81.9704 5.28302ZM101.142 17.3668C100.971 17.3668 100.848 17.3248 100.773 17.2408C100.698 17.1568 100.66 17.0413 100.66 16.8943V9.5524C100.639 8.48155 100.387 7.56702 99.9063 6.81113C99.4256 6.05524 98.7359 5.48249 97.8386 5.09405C96.9413 4.70561 95.8718 4.5108 94.6327 4.5108C93.2 4.5108 91.9929 4.69511 91.0101 5.06256C90.0273 5.43 89.2736 5.97126 88.7502 6.68515C88.2256 7.39905 87.9003 8.29258 87.7722 9.36343H91.4908C91.5549 8.92249 91.6998 8.56554 91.9241 8.29258C92.1484 8.01962 92.4582 7.82598 92.8535 7.70933C93.2487 7.59385 93.7567 7.53669 94.3763 7.53669C95.0172 7.53669 95.5359 7.62068 95.9312 7.78866C96.3264 7.95663 96.6208 8.21443 96.8131 8.56088C97.0054 8.90733 97.1015 9.36459 97.1015 9.93151V10.9394H92.8784C91.5573 10.9394 90.4226 11.2811 89.568 11.7116C88.7134 12.142 88.0713 12.7194 87.644 13.445C87.2167 14.1694 87.003 15.0046 87.003 15.9495C87.003 16.9375 87.2428 17.7925 87.7247 18.5169C88.2054 19.2413 88.8891 19.7977 89.7769 20.1873C90.6635 20.5758 91.7164 20.7706 92.9353 20.7706C93.9609 20.7706 94.8796 20.6073 95.6926 20.2818C96.5045 19.9564 97.1561 19.5049 97.6487 18.9264C97.7425 18.8155 97.8267 18.6989 97.9051 18.5799V18.7222C97.9051 19.0582 97.9799 19.3475 98.1294 19.5889C98.279 19.8304 98.4819 20.0147 98.7383 20.1407C98.9947 20.2667 99.3045 20.3297 99.6677 20.3297H102V17.3679H101.142V17.3668ZM97.1027 14.342C97.1027 15.0769 96.9472 15.7022 96.6374 16.2166C96.3276 16.7322 95.8944 17.1195 95.3389 17.3819C94.7834 17.6444 94.1413 17.7762 93.4149 17.7762C92.8594 17.7762 92.3775 17.6969 91.9727 17.5406C91.5668 17.3831 91.2558 17.1579 91.0434 16.8628C90.8297 16.5689 90.7229 16.2329 90.7229 15.855C90.7229 15.477 90.819 15.1411 91.0113 14.8471C91.2036 14.5532 91.492 14.307 91.8766 14.1064C92.2612 13.9069 92.7205 13.7973 93.2546 13.7751H97.1015V14.342H97.1027ZM66.0844 11.9472C65.39 11.5483 64.5508 11.2963 63.5681 11.1913L61.0351 10.9079C60.501 10.8449 60.0618 10.7399 59.7212 10.5929C59.3793 10.4459 59.123 10.2616 58.952 10.0412C58.7811 9.82069 58.6957 9.5524 58.6957 9.23744C58.6957 8.69152 58.9414 8.26109 59.4328 7.94613C59.9241 7.63118 60.5865 7.4737 61.4209 7.4737C62.0191 7.4737 62.5318 7.54719 62.9591 7.69417C63.3864 7.84115 63.7235 8.04645 63.9692 8.30891C64.2149 8.57138 64.3479 8.92366 64.3704 9.36459H68.0891C68.025 8.29375 67.72 7.40021 67.1752 6.68632C66.6304 5.97242 65.8707 5.43117 64.8986 5.06372C63.9253 4.69628 62.7882 4.51197 61.4838 4.51197C60.158 4.51197 59.0149 4.71727 58.0535 5.12671C57.0921 5.53615 56.3491 6.10307 55.8256 6.82863C55.301 7.55302 55.0399 8.41973 55.0399 9.42758C55.0399 10.2896 55.2322 11.0455 55.6167 11.6964C56.0013 12.3473 56.5461 12.8734 57.2523 13.2712C57.9574 13.6701 58.8013 13.9221 59.7853 14.0271L62.2541 14.279C62.7455 14.321 63.1514 14.4109 63.4719 14.5473C63.7924 14.6838 64.0381 14.8681 64.209 15.0991C64.3799 15.3301 64.4654 15.603 64.4654 15.918C64.4654 16.2959 64.3538 16.6319 64.1283 16.9258C63.904 17.2198 63.5728 17.4461 63.1348 17.6036C62.6968 17.761 62.1888 17.8403 61.612 17.8403C60.9497 17.8403 60.3823 17.7669 59.9123 17.6199C59.4422 17.4729 59.079 17.2524 58.8227 16.9585C58.5663 16.6645 58.4167 16.2971 58.374 15.8561H54.5271C54.5699 16.927 54.8737 17.831 55.4411 18.5659C56.0072 19.302 56.8037 19.8572 57.8292 20.2363C58.8547 20.6143 60.0737 20.8032 61.4838 20.8032C62.8511 20.8032 64.0428 20.5979 65.0589 20.1885C66.0737 19.7791 66.8535 19.1958 67.3995 18.4399C67.9443 17.684 68.2173 16.7917 68.2173 15.7617C68.2173 14.9218 68.0357 14.1764 67.6725 13.5243C67.3081 12.8722 66.7787 12.3462 66.0844 11.9472ZM17.7652 0.982153C16.7135 0.485226 15.4673 0.235596 14.0263 0.235596H5.0293V3.76541H13.8803C14.5616 3.76541 15.1503 3.8704 15.6477 4.08153C16.1438 4.29267 16.5189 4.60296 16.7717 5.01473C17.0245 5.4265 17.1515 5.90943 17.1515 6.46468C17.1515 7.01993 17.0245 7.50286 16.7717 7.91464C16.5189 8.32641 16.1438 8.6367 15.6477 8.84783C15.1515 9.05897 14.5616 9.16395 13.8803 9.16395H10.7693V6.10307L6.94265 4.5458V9.16279H5.0293V12.6938H14.0263C15.4471 12.6938 16.6886 12.4453 17.7497 11.9472C18.8109 11.4503 19.6239 10.7329 20.1889 9.79503C20.7539 8.85833 21.0364 7.74783 21.0364 6.46585C21.0364 5.18387 20.7539 4.07453 20.1889 3.13667C19.6239 2.19764 18.8156 1.48025 17.7652 0.982153ZM6.94265 20.3285H10.7693V15.0303L6.94265 13.473V20.3285Z" fill="#EEEEEE"></path><path d="M0 2.00171C0 0.895869 0.911571 0 2.03679 0C3.16082 0 4.07358 0.895869 4.07358 2.00171C4.07358 3.10754 3.16201 4.00341 2.03679 4.00341C0.911571 4.00341 0 3.10754 0 2.00171Z" fill="#387755"></path><path d="M0 10.9394C0 9.83356 0.911571 8.93769 2.03679 8.93769C3.16082 8.93769 4.07358 9.83356 4.07358 10.9394C4.07358 12.0452 3.16201 12.9411 2.03679 12.9411C0.911571 12.9411 0 12.0452 0 10.9394Z" fill="#387755"></path></svg>